<svg id="visual" viewBox="0 0 900 600" width="900" height="600" xmlns="http://www.w3.org/2000/svg" xmlns:xlink="http://www.w3.org/1999/xlink" version="1.1"><rect x="0" y="0" width="900" height="600" fill="#f6f6f6"></rect><defs><linearGradient id="grad1_0" x1="33.3%" y1="0%" x2="100%" y2="100%"><stop offset="20%" stop-color="#ffcd00" stop-opacity="1"></stop><stop offset="80%" stop-color="#ffcd00" stop-opacity="1"></stop></linearGradient></defs><defs><linearGradient id="grad1_1" x1="33.3%" y1="0%" x2="100%" y2="100%"><stop offset="20%" stop-color="#ffcd00" stop-opacity="1"></stop><stop offset="80%" stop-color="#ffe192" stop-opacity="1"></stop></linearGradient></defs><defs><linearGradient id="grad1_2" x1="33.3%" y1="0%" x2="100%" y2="100%"><stop offset="20%" stop-color="#f6f6f6" stop-opacity="1"></stop><stop offset="80%" stop-color="#ffe192" stop-opacity="1"></stop></linearGradient></defs><defs><linearGradient id="grad2_0" x1="0%" y1="0%" x2="66.7%" y2="100%"><stop offset="20%" stop-color="#ffcd00" stop-opacity="1"></stop><stop offset="80%" stop-color="#ffcd00" stop-opacity="1"></stop></linearGradient></defs><defs><linearGradient id="grad2_1" x1="0%" y1="0%" x2="66.7%" y2="100%"><stop offset="20%" stop-color="#ffe192" stop-opacity="1"></stop><stop offset="80%" stop-color="#ffcd00" stop-opacity="1"></stop></linearGradient></defs><defs><linearGradient id="grad2_2" x1="0%" y1="0%" x2="66.7%" y2="100%"><stop offset="20%" stop-color="#ffe192" stop-opacity="1"></stop><stop offset="80%" stop-color="#f6f6f6" stop-opacity="1"></stop></linearGradient></defs><g transform="translate(900, 0)"><path d="M0 270.4C-44.9 259.7 -89.8 249 -131.5 227.8C-173.2 206.6 -211.6 174.9 -234.2 135.2C-256.8 95.5 -263.6 47.8 -270.4 0L0 0Z" fill="#ffebc4"></path><path d="M0 180.3C-29.9 173.1 -59.9 166 -87.7 151.8C-115.4 137.7 -141.1 116.6 -156.1 90.1C-171.2 63.7 -175.7 31.8 -180.3 0L0 0Z" fill="#ffd75d"></path><path d="M0 90.1C-15 86.6 -29.9 83 -43.8 75.9C-57.7 68.9 -70.5 58.3 -78.1 45.1C-85.6 31.8 -87.9 15.9 -90.1 0L0 0Z" fill="#ffcd00"></path></g><g transform="translate(0, 600)"><path d="M0 -270.4C53.9 -267.1 107.7 -263.9 135.2 -234.2C162.7 -204.5 163.7 -148.4 181.9 -105C200 -61.6 235.2 -30.8 270.4 0L0 0Z" fill="#ffebc4"></path><path d="M0 -180.3C35.9 -178.1 71.8 -175.9 90.1 -156.1C108.4 -136.3 109.2 -99 121.2 -70C133.3 -41 156.8 -20.5 180.3 0L0 0Z" fill="#ffd75d"></path><path d="M0 -90.1C18 -89 35.9 -88 45.1 -78.1C54.2 -68.2 54.6 -49.5 60.6 -35C66.7 -20.5 78.4 -10.3 90.1 0L0 0Z" fill="#ffcd00"></path></g></svg>