<?xml version="1.0" encoding="UTF-8"?>
<!DOCTYPE svg PUBLIC "-//W3C//DTD SVG 1.1//EN" "http://www.w3.org/Graphics/SVG/1.1/DTD/svg11.dtd">
<svg xmlns="http://www.w3.org/2000/svg" version="1.1" width="900px" height="600px" style="shape-rendering:geometricPrecision; text-rendering:geometricPrecision; image-rendering:optimizeQuality; fill-rule:evenodd; clip-rule:evenodd" xmlns:xlink="http://www.w3.org/1999/xlink">
<g><path style="opacity:1" fill="#26272a" d="M -0.5,-0.5 C 209.5,-0.5 419.5,-0.5 629.5,-0.5C 633.404,34.5212 640.571,68.8546 651,102.5C 664.374,137.872 685.541,167.706 714.5,192C 749.368,219.603 788.368,239.603 831.5,252C 854.019,258.463 876.685,264.296 899.5,269.5C 899.5,379.5 899.5,489.5 899.5,599.5C 689.167,599.5 478.833,599.5 268.5,599.5C 252.229,584.399 236.062,569.065 220,553.5C 199.652,531.819 184.652,506.819 175,478.5C 168.312,452.413 161.312,426.413 154,400.5C 144.404,370.571 124.571,351.071 94.5,342C 63.2943,334.44 31.6276,330.273 -0.5,329.5C -0.5,219.5 -0.5,109.5 -0.5,-0.5 Z"/></g>
<g><path style="opacity:1" fill="#ffeac3" d="M 629.5,-0.5 C 659.5,-0.5 689.5,-0.5 719.5,-0.5C 721.863,23.3433 726.696,46.6766 734,69.5C 747.226,102.065 769.06,127.231 799.5,145C 830.906,161.748 864.239,173.248 899.5,179.5C 899.5,209.5 899.5,239.5 899.5,269.5C 876.685,264.296 854.019,258.463 831.5,252C 788.368,239.603 749.368,219.603 714.5,192C 685.541,167.706 664.374,137.872 651,102.5C 640.571,68.8546 633.404,34.5212 629.5,-0.5 Z"/></g>
<g><path style="opacity:1" fill="#ffd75d" d="M 719.5,-0.5 C 749.5,-0.5 779.5,-0.5 809.5,-0.5C 811.437,43.8887 833.771,72.0553 876.5,84C 884.068,86.3087 891.734,88.1421 899.5,89.5C 899.5,119.5 899.5,149.5 899.5,179.5C 864.239,173.248 830.906,161.748 799.5,145C 769.06,127.231 747.226,102.065 734,69.5C 726.696,46.6766 721.863,23.3433 719.5,-0.5 Z"/></g>
<g><path style="opacity:1" fill="#ffcd00" d="M 809.5,-0.5 C 839.5,-0.5 869.5,-0.5 899.5,-0.5C 899.5,29.5 899.5,59.5 899.5,89.5C 891.734,88.1421 884.068,86.3087 876.5,84C 833.771,72.0553 811.437,43.8887 809.5,-0.5 Z"/></g>
<g><path style="opacity:1" fill="#ffeac3" d="M -0.5,329.5 C 31.6276,330.273 63.2943,334.44 94.5,342C 124.571,351.071 144.404,370.571 154,400.5C 161.312,426.413 168.312,452.413 175,478.5C 184.652,506.819 199.652,531.819 220,553.5C 236.062,569.065 252.229,584.399 268.5,599.5C 238.833,599.5 209.167,599.5 179.5,599.5C 167.259,588.763 155.426,577.429 144,565.5C 131.324,551.156 121.99,534.822 116,516.5C 111.823,500.123 107.489,483.79 103,467.5C 96.7346,446.235 82.9013,432.735 61.5,427C 41.0713,422.59 20.4046,420.09 -0.5,419.5C -0.5,389.5 -0.5,359.5 -0.5,329.5 Z"/></g>
<g><path style="opacity:1" fill="#ffd75d" d="M -0.5,419.5 C 20.4046,420.09 41.0713,422.59 61.5,427C 82.9013,432.735 96.7346,446.235 103,467.5C 107.489,483.79 111.823,500.123 116,516.5C 121.99,534.822 131.324,551.156 144,565.5C 155.426,577.429 167.259,588.763 179.5,599.5C 149.5,599.5 119.5,599.5 89.5,599.5C 79.4545,590.954 70.6212,581.287 63,570.5C 57.6149,557.968 53.6149,544.968 51,531.5C 46.4147,520.61 38.248,514.11 26.5,512C 17.581,510.26 8.581,509.427 -0.5,509.5C -0.5,479.5 -0.5,449.5 -0.5,419.5 Z"/></g>
<g><path style="opacity:1" fill="#ffcd00" d="M -0.5,509.5 C 8.581,509.427 17.581,510.26 26.5,512C 38.248,514.11 46.4147,520.61 51,531.5C 53.6149,544.968 57.6149,557.968 63,570.5C 70.6212,581.287 79.4545,590.954 89.5,599.5C 59.5,599.5 29.5,599.5 -0.5,599.5C -0.5,569.5 -0.5,539.5 -0.5,509.5 Z"/></g>
</svg>
