<svg id="visual" viewBox="0 0 900 600" width="900" height="600" xmlns="http://www.w3.org/2000/svg" xmlns:xlink="http://www.w3.org/1999/xlink" version="1.1"><rect x="0" y="0" width="900" height="600" fill="#f6f6f6"></rect><defs><linearGradient id="grad1_0" x1="33.3%" y1="0%" x2="100%" y2="100%"><stop offset="20%" stop-color="#ffcd00" stop-opacity="1"></stop><stop offset="80%" stop-color="#ffcd00" stop-opacity="1"></stop></linearGradient></defs><defs><linearGradient id="grad1_1" x1="33.3%" y1="0%" x2="100%" y2="100%"><stop offset="20%" stop-color="#ffcd00" stop-opacity="1"></stop><stop offset="80%" stop-color="#ffe192" stop-opacity="1"></stop></linearGradient></defs><defs><linearGradient id="grad1_2" x1="33.3%" y1="0%" x2="100%" y2="100%"><stop offset="20%" stop-color="#f6f6f6" stop-opacity="1"></stop><stop offset="80%" stop-color="#ffe192" stop-opacity="1"></stop></linearGradient></defs><defs><linearGradient id="grad2_0" x1="0%" y1="0%" x2="66.7%" y2="100%"><stop offset="20%" stop-color="#ffcd00" stop-opacity="1"></stop><stop offset="80%" stop-color="#ffcd00" stop-opacity="1"></stop></linearGradient></defs><defs><linearGradient id="grad2_1" x1="0%" y1="0%" x2="66.7%" y2="100%"><stop offset="20%" stop-color="#ffe192" stop-opacity="1"></stop><stop offset="80%" stop-color="#ffcd00" stop-opacity="1"></stop></linearGradient></defs><defs><linearGradient id="grad2_2" x1="0%" y1="0%" x2="66.7%" y2="100%"><stop offset="20%" stop-color="#ffe192" stop-opacity="1"></stop><stop offset="80%" stop-color="#f6f6f6" stop-opacity="1"></stop></linearGradient></defs><g transform="translate(900, 0)"><path d="M0 378.6C-40.1 376.1 -80.3 373.5 -117 360.1C-153.7 346.6 -187 322.1 -214.5 295.3C-242.1 268.5 -264 239.2 -288.8 209.8C-313.6 180.4 -341.2 150.9 -356.6 115.9C-372.1 80.9 -375.3 40.4 -378.6 0L0 0Z" fill="#ffebc4"></path><path d="M0 252.4C-26.8 250.7 -53.5 249 -78 240C-102.5 231 -124.6 214.8 -143 196.9C-161.4 179 -176 159.5 -192.5 139.9C-209.1 120.3 -227.5 100.6 -237.8 77.3C-248.1 53.9 -250.2 27 -252.4 0L0 0Z" fill="#ffd75d"></path><path d="M0 126.2C-13.4 125.4 -26.8 124.5 -39 120C-51.2 115.5 -62.3 107.4 -71.5 98.4C-80.7 89.5 -88 79.7 -96.3 69.9C-104.5 60.1 -113.7 50.3 -118.9 38.6C-124 27 -125.1 13.5 -126.2 0L0 0Z" fill="#ffcd00"></path></g><g transform="translate(0, 600)"><path d="M0 -378.6C34.6 -360.1 69.1 -341.5 108.2 -332.9C147.2 -324.2 190.8 -325.4 222.5 -306.3C254.3 -287.2 274.3 -247.7 292.1 -212.2C309.9 -176.7 325.5 -145 339.5 -110.3C353.6 -75.6 366.1 -37.8 378.6 0L0 0Z" fill="#ffebc4"></path><path d="M0 -252.4C23 -240 46.1 -227.7 72.1 -221.9C98.1 -216.1 127.2 -216.9 148.4 -204.2C169.5 -191.4 182.8 -165.1 194.7 -141.5C206.6 -117.8 217 -96.7 226.4 -73.5C235.7 -50.4 244.1 -25.2 252.4 0L0 0Z" fill="#ffd75d"></path><path d="M0 -126.2C11.5 -120 23 -113.8 36.1 -111C49.1 -108.1 63.6 -108.5 74.2 -102.1C84.8 -95.7 91.4 -82.6 97.4 -70.7C103.3 -58.9 108.5 -48.3 113.2 -36.8C117.9 -25.2 122 -12.6 126.2 0L0 0Z" fill="#ffcd00"></path></g></svg>