<?xml version="1.0" encoding="UTF-8"?>
<!DOCTYPE svg PUBLIC "-//W3C//DTD SVG 1.1//EN" "http://www.w3.org/Graphics/SVG/1.1/DTD/svg11.dtd">
<svg xmlns="http://www.w3.org/2000/svg" version="1.1" width="900px" height="600px" style="shape-rendering:geometricPrecision; text-rendering:geometricPrecision; image-rendering:optimizeQuality; fill-rule:evenodd; clip-rule:evenodd" xmlns:xlink="http://www.w3.org/1999/xlink">
<g><path style="opacity:1" fill="#26272a" d="M -0.5,-0.5 C 173.5,-0.5 347.5,-0.5 521.5,-0.5C 522.638,35.3037 528.471,70.3037 539,104.5C 549.635,131.098 564.302,155.098 583,176.5C 613,211.833 643,247.167 673,282.5C 702.327,314.575 736.827,339.408 776.5,357C 795.557,364.348 815.223,369.348 835.5,372C 856.757,374.766 878.09,376.599 899.5,377.5C 899.5,451.5 899.5,525.5 899.5,599.5C 725.5,599.5 551.5,599.5 377.5,599.5C 351.132,512.765 315.965,429.765 272,350.5C 260.439,329.94 245.606,312.107 227.5,297C 213.73,288.073 198.73,282.073 182.5,279C 157.483,275.093 132.483,271.093 107.5,267C 86.1201,261.651 65.4534,254.318 45.5,245C 29.9838,237.409 14.6504,229.576 -0.5,221.5C -0.5,147.5 -0.5,73.5 -0.5,-0.5 Z"/></g>
<g><path style="opacity:1" fill="#ffeac3" d="M 521.5,-0.5 C 563.5,-0.5 605.5,-0.5 647.5,-0.5C 648.159,22.612 651.659,45.2786 658,67.5C 666.049,87.946 677.383,106.279 692,122.5C 712.097,146.353 732.43,170.02 753,193.5C 772.169,212.994 794.335,228.161 819.5,239C 845.472,247.379 872.138,251.545 899.5,251.5C 899.5,293.5 899.5,335.5 899.5,377.5C 878.09,376.599 856.757,374.766 835.5,372C 815.223,369.348 795.557,364.348 776.5,357C 736.827,339.408 702.327,314.575 673,282.5C 643,247.167 613,211.833 583,176.5C 564.302,155.098 549.635,131.098 539,104.5C 528.471,70.3037 522.638,35.3037 521.5,-0.5 Z"/></g>
<g><path style="opacity:1" fill="#ffd75d" d="M 647.5,-0.5 C 689.5,-0.5 731.5,-0.5 773.5,-0.5C 773.333,16.1715 777.167,31.8382 785,46.5C 801.073,69.4712 819.573,90.3045 840.5,109C 858.212,121.116 877.879,126.616 899.5,125.5C 899.5,167.5 899.5,209.5 899.5,251.5C 872.138,251.545 845.472,247.379 819.5,239C 794.335,228.161 772.169,212.994 753,193.5C 732.43,170.02 712.097,146.353 692,122.5C 677.383,106.279 666.049,87.946 658,67.5C 651.659,45.2786 648.159,22.612 647.5,-0.5 Z"/></g>
<g><path style="opacity:1" fill="#ffcd00" d="M 773.5,-0.5 C 815.5,-0.5 857.5,-0.5 899.5,-0.5C 899.5,41.5 899.5,83.5 899.5,125.5C 877.879,126.616 858.212,121.116 840.5,109C 819.573,90.3045 801.073,69.4712 785,46.5C 777.167,31.8382 773.333,16.1715 773.5,-0.5 Z"/></g>
<g><path style="opacity:1" fill="#ffeac3" d="M -0.5,221.5 C 14.6504,229.576 29.9838,237.409 45.5,245C 65.4534,254.318 86.1201,261.651 107.5,267C 132.483,271.093 157.483,275.093 182.5,279C 198.73,282.073 213.73,288.073 227.5,297C 245.606,312.107 260.439,329.94 272,350.5C 315.965,429.765 351.132,512.765 377.5,599.5C 335.5,599.5 293.5,599.5 251.5,599.5C 234.068,541.298 210.568,485.632 181,432.5C 173.705,419.202 164.205,407.702 152.5,398C 140.024,389.952 126.358,385.286 111.5,384C 91.0387,382.146 71.0387,378.146 51.5,372C 33.7825,364.641 16.4491,356.474 -0.5,347.5C -0.5,305.5 -0.5,263.5 -0.5,221.5 Z"/></g>
<g><path style="opacity:1" fill="#ffd75d" d="M -0.5,347.5 C 16.4491,356.474 33.7825,364.641 51.5,372C 71.0387,378.146 91.0387,382.146 111.5,384C 126.358,385.286 140.024,389.952 152.5,398C 164.205,407.702 173.705,419.202 181,432.5C 210.568,485.632 234.068,541.298 251.5,599.5C 209.5,599.5 167.5,599.5 125.5,599.5C 116.025,566.551 102.192,535.551 84,506.5C 80.0299,501.525 75.1965,497.691 69.5,495C 55.5661,491.723 41.5661,488.723 27.5,486C 17.9965,482.079 8.66318,477.912 -0.5,473.5C -0.5,431.5 -0.5,389.5 -0.5,347.5 Z"/></g>
<g><path style="opacity:1" fill="#ffcd00" d="M -0.5,473.5 C 8.66318,477.912 17.9965,482.079 27.5,486C 41.5661,488.723 55.5661,491.723 69.5,495C 75.1965,497.691 80.0299,501.525 84,506.5C 102.192,535.551 116.025,566.551 125.5,599.5C 83.5,599.5 41.5,599.5 -0.5,599.5C -0.5,557.5 -0.5,515.5 -0.5,473.5 Z"/></g>
</svg>
