<svg id="visual" viewBox="0 0 900 600" width="900" height="600" xmlns="http://www.w3.org/2000/svg" xmlns:xlink="http://www.w3.org/1999/xlink" version="1.1"><rect x="0" y="0" width="900" height="600" fill="#f6f6f6"></rect><defs><linearGradient id="grad1_0" x1="33.3%" y1="0%" x2="100%" y2="100%"><stop offset="20%" stop-color="#ffcd00" stop-opacity="1"></stop><stop offset="80%" stop-color="#ffcd00" stop-opacity="1"></stop></linearGradient></defs><defs><linearGradient id="grad1_1" x1="33.3%" y1="0%" x2="100%" y2="100%"><stop offset="20%" stop-color="#ffcd00" stop-opacity="1"></stop><stop offset="80%" stop-color="#ffe192" stop-opacity="1"></stop></linearGradient></defs><defs><linearGradient id="grad1_2" x1="33.3%" y1="0%" x2="100%" y2="100%"><stop offset="20%" stop-color="#f6f6f6" stop-opacity="1"></stop><stop offset="80%" stop-color="#ffe192" stop-opacity="1"></stop></linearGradient></defs><defs><linearGradient id="grad2_0" x1="0%" y1="0%" x2="66.7%" y2="100%"><stop offset="20%" stop-color="#ffcd00" stop-opacity="1"></stop><stop offset="80%" stop-color="#ffcd00" stop-opacity="1"></stop></linearGradient></defs><defs><linearGradient id="grad2_1" x1="0%" y1="0%" x2="66.7%" y2="100%"><stop offset="20%" stop-color="#ffe192" stop-opacity="1"></stop><stop offset="80%" stop-color="#ffcd00" stop-opacity="1"></stop></linearGradient></defs><defs><linearGradient id="grad2_2" x1="0%" y1="0%" x2="66.7%" y2="100%"><stop offset="20%" stop-color="#ffe192" stop-opacity="1"></stop><stop offset="80%" stop-color="#f6f6f6" stop-opacity="1"></stop></linearGradient></defs><g transform="translate(900, 0)"><path d="M0 351.5C-31.8 330.2 -63.6 308.8 -96.7 297.7C-129.8 286.5 -164.2 285.6 -198.7 273.4C-233.1 261.3 -267.7 238 -284.4 206.6C-301.1 175.3 -299.9 135.9 -308.1 100.1C-316.4 64.3 -333.9 32.2 -351.5 0L0 0Z" fill="#ffebc4"></path><path d="M0 234.4C-21.2 220.1 -42.4 205.9 -64.5 198.5C-86.5 191 -109.5 190.4 -132.4 182.3C-155.4 174.2 -178.5 158.7 -189.6 137.8C-200.7 116.9 -200 90.6 -205.4 66.7C-210.9 42.9 -222.6 21.4 -234.4 0L0 0Z" fill="#ffd75d"></path><path d="M0 117.2C-10.6 110.1 -21.2 102.9 -32.2 99.2C-43.3 95.5 -54.7 95.2 -66.2 91.1C-77.7 87.1 -89.2 79.3 -94.8 68.9C-100.4 58.4 -100 45.3 -102.7 33.4C-105.5 21.4 -111.3 10.7 -117.2 0L0 0Z" fill="#ffcd00"></path></g><g transform="translate(0, 600)"><path d="M0 -351.5C34.8 -342.8 69.5 -334.1 105.7 -325.3C141.8 -316.4 179.4 -307.4 206.6 -284.4C233.9 -261.4 250.9 -224.5 262.9 -191C274.9 -157.5 281.9 -127.4 295.8 -96.1C309.7 -64.8 330.6 -32.4 351.5 0L0 0Z" fill="#ffebc4"></path><path d="M0 -234.4C23.2 -228.6 46.4 -222.8 70.5 -216.8C94.6 -210.9 119.6 -204.9 137.8 -189.6C155.9 -174.3 167.3 -149.7 175.3 -127.4C183.3 -105 187.9 -84.9 197.2 -64.1C206.5 -43.2 220.4 -21.6 234.4 0L0 0Z" fill="#ffd75d"></path><path d="M0 -117.2C11.6 -114.3 23.2 -111.4 35.2 -108.4C47.3 -105.5 59.8 -102.5 68.9 -94.8C78 -87.1 83.6 -74.8 87.6 -63.7C91.6 -52.5 94 -42.5 98.6 -32C103.2 -21.6 110.2 -10.8 117.2 0L0 0Z" fill="#ffcd00"></path></g></svg>