<?xml version="1.0" encoding="UTF-8"?>
<!DOCTYPE svg PUBLIC "-//W3C//DTD SVG 1.1//EN" "http://www.w3.org/Graphics/SVG/1.1/DTD/svg11.dtd">
<svg xmlns="http://www.w3.org/2000/svg" version="1.1" width="900px" height="600px" style="shape-rendering:geometricPrecision; text-rendering:geometricPrecision; image-rendering:optimizeQuality; fill-rule:evenodd; clip-rule:evenodd" xmlns:xlink="http://www.w3.org/1999/xlink">
<g><path style="opacity:1" fill="#26272a" d="M -0.5,-0.5 C 182.5,-0.5 365.5,-0.5 548.5,-0.5C 561.588,22.344 573.088,46.0106 583,70.5C 586.607,80.3206 589.607,90.3206 592,100.5C 596.017,127.617 600.683,154.617 606,181.5C 613.726,207.894 628.559,229.394 650.5,246C 672.186,261.84 696.186,272.84 722.5,279C 740.782,282.923 759.115,286.59 777.5,290C 805.333,296.251 831.333,306.918 855.5,322C 870.319,331.329 884.986,340.829 899.5,350.5C 899.5,433.5 899.5,516.5 899.5,599.5C 716.5,599.5 533.5,599.5 350.5,599.5C 331.499,570.849 313.999,541.183 298,510.5C 293.724,500.948 289.724,491.281 286,481.5C 276.127,449.88 265.46,418.547 254,387.5C 245.792,366.732 234.792,347.732 221,330.5C 204.975,312.234 185.475,299.067 162.5,291C 148.397,285.891 134.063,281.558 119.5,278C 79.4859,268.163 39.4859,258.33 -0.5,248.5C -0.5,165.5 -0.5,82.5 -0.5,-0.5 Z"/></g>
<g><path style="opacity:1" fill="#ffeac3" d="M 548.5,-0.5 C 587.5,-0.5 626.5,-0.5 665.5,-0.5C 673.456,13.7457 680.623,28.4124 687,43.5C 689.535,50.7719 691.868,58.1052 694,65.5C 696.869,84.5865 700.203,103.587 704,122.5C 706.752,132.003 711.085,140.67 717,148.5C 733.13,166.651 752.963,178.817 776.5,185C 796.4,188.371 816.066,192.704 835.5,198C 844.049,201.632 852.549,205.465 861,209.5C 874.078,217.232 886.911,225.232 899.5,233.5C 899.5,272.5 899.5,311.5 899.5,350.5C 884.986,340.829 870.319,331.329 855.5,322C 831.333,306.918 805.333,296.251 777.5,290C 759.115,286.59 740.782,282.923 722.5,279C 696.186,272.84 672.186,261.84 650.5,246C 628.559,229.394 613.726,207.894 606,181.5C 600.683,154.617 596.017,127.617 592,100.5C 589.607,90.3206 586.607,80.3206 583,70.5C 573.088,46.0106 561.588,22.344 548.5,-0.5 Z"/></g>
<g><path style="opacity:1" fill="#ffd75d" d="M 665.5,-0.5 C 704.5,-0.5 743.5,-0.5 782.5,-0.5C 793.449,17.6196 799.616,37.2862 801,58.5C 805.281,74.1166 815.114,84.6166 830.5,90C 842.704,93.5077 855.038,96.5077 867.5,99C 878.643,104.069 889.309,109.903 899.5,116.5C 899.5,155.5 899.5,194.5 899.5,233.5C 886.911,225.232 874.078,217.232 861,209.5C 852.549,205.465 844.049,201.632 835.5,198C 816.066,192.704 796.4,188.371 776.5,185C 752.963,178.817 733.13,166.651 717,148.5C 711.085,140.67 706.752,132.003 704,122.5C 700.203,103.587 696.869,84.5865 694,65.5C 691.868,58.1052 689.535,50.7719 687,43.5C 680.623,28.4124 673.456,13.7457 665.5,-0.5 Z"/></g>
<g><path style="opacity:1" fill="#ffcd00" d="M 782.5,-0.5 C 821.5,-0.5 860.5,-0.5 899.5,-0.5C 899.5,38.5 899.5,77.5 899.5,116.5C 889.309,109.903 878.643,104.069 867.5,99C 855.038,96.5077 842.704,93.5077 830.5,90C 815.114,84.6166 805.281,74.1166 801,58.5C 799.616,37.2862 793.449,17.6196 782.5,-0.5 Z"/></g>
<g><path style="opacity:1" fill="#ffeac3" d="M -0.5,248.5 C 39.4859,258.33 79.4859,268.163 119.5,278C 134.063,281.558 148.397,285.891 162.5,291C 185.475,299.067 204.975,312.234 221,330.5C 234.792,347.732 245.792,366.732 254,387.5C 265.46,418.547 276.127,449.88 286,481.5C 289.724,491.281 293.724,500.948 298,510.5C 313.999,541.183 331.499,570.849 350.5,599.5C 311.5,599.5 272.5,599.5 233.5,599.5C 222.124,581.592 211.29,563.259 201,544.5C 197.392,536.95 194.058,529.283 191,521.5C 184.126,498.879 176.46,476.546 168,454.5C 160.014,434.857 147.848,418.357 131.5,405C 116.864,396.184 101.197,389.851 84.5,386C 56.2601,378.69 27.9268,371.857 -0.5,365.5C -0.5,326.5 -0.5,287.5 -0.5,248.5 Z"/></g>
<g><path style="opacity:1" fill="#ffd75d" d="M -0.5,365.5 C 27.9268,371.857 56.2601,378.69 84.5,386C 101.197,389.851 116.864,396.184 131.5,405C 147.848,418.357 160.014,434.857 168,454.5C 176.46,476.546 184.126,498.879 191,521.5C 194.058,529.283 197.392,536.95 201,544.5C 211.29,563.259 222.124,581.592 233.5,599.5C 194.5,599.5 155.5,599.5 116.5,599.5C 110.092,589.024 103.926,578.358 98,567.5C 93.3333,554.167 88.6667,540.833 84,527.5C 78.6413,512.234 68.4746,501.734 53.5,496C 35.6436,490.869 17.6436,486.369 -0.5,482.5C -0.5,443.5 -0.5,404.5 -0.5,365.5 Z"/></g>
<g><path style="opacity:1" fill="#ffcd00" d="M -0.5,482.5 C 17.6436,486.369 35.6436,490.869 53.5,496C 68.4746,501.734 78.6413,512.234 84,527.5C 88.6667,540.833 93.3333,554.167 98,567.5C 103.926,578.358 110.092,589.024 116.5,599.5C 77.5,599.5 38.5,599.5 -0.5,599.5C -0.5,560.5 -0.5,521.5 -0.5,482.5 Z"/></g>
</svg>
